<?xml version="1.0" encoding="utf-8"?>
<!-- Generator: Adobe Illustrator 21.1.0, SVG Export Plug-In . SVG Version: 6.00 Build 0)  -->
<svg version="1.1" id="logomark" xmlns="http://www.w3.org/2000/svg" xmlns:xlink="http://www.w3.org/1999/xlink" x="0px" y="0px"
	 viewBox="0 0 475 475" style="enable-background:new 0 0 475 475;" xml:space="preserve">
<path id="logomark_1_" d="M450.7,149.8c-4.2-12.4-10.3-23.1-18.4-32.2c-8.1-9.1-17.9-16.2-29.6-21.4c-6.8-3-14.1-5.1-22-6.4
	c-0.5-1-0.9-2-1.4-2.9c-8.4-16.6-19.6-30.8-33.5-42.5c-13.9-11.7-29.9-20.8-48-27.2c-18-6.5-36.8-9.7-56.3-9.7
	c-17.6,0-35.2,2.7-52.6,8.2c-17.4,5.4-33,13.4-46.8,23.8C128.4,50,117.3,62.8,108.8,78C100.2,93.2,96,110.4,96,129.7
	c0,19,4.1,35.5,12.4,49.6c-13.6,0.4-25.8,2.9-36.6,7.7c-11.6,5.2-21.5,12.3-29.5,21.4c-8.1,9.1-14.2,19.8-18.4,32.2
	c-4.2,12.4-6.3,25.8-6.3,40.3v3.9c0,14.6,2.1,28.1,6.3,40.5c4.2,12.4,10.3,23.1,18.4,32.2c8.1,9.1,18,16.2,29.7,21.3
	c7.3,3.2,15.2,5.3,23.7,6.5c0.7,1.4,1.4,2.7,2.2,4c9.4,16.7,21.7,30.9,36.8,42.5c15.1,11.6,32.1,20.5,51.2,26.6s38.6,9.2,58.4,9.2
	c17.8,0,35.7-2.5,53.5-7.5s33.8-12.5,48-22.5c14.2-9.9,25.7-22.4,34.6-37.4c8.9-15,13.4-32.5,13.4-52.6c0-13.3-1.9-25.5-5.7-36.5
	c-2-5.9-4.5-11.5-7.4-16.9c8-1.2,15.4-3.3,22.2-6.3c11.7-5.1,21.5-12.2,29.5-21.3c8-9.1,14.1-19.8,18.3-32.2
	c4.2-12.4,6.3-25.9,6.3-40.5v-3.9C457,175.6,454.9,162.2,450.7,149.8z M162.6,97.4c4.8-9,11.3-16.6,19.4-22.8
	c8.1-6.2,17.3-10.8,27.7-13.8c10.4-3.1,21-4.6,31.8-4.6c13.5,0,25.7,2.1,36.5,6.3c10.8,4.2,20,10.1,27.8,17.7
	c5.3,5.2,9.9,11,13.7,17.5c-10.3,5-19.1,11.6-26.4,19.9c-8.1,9.1-14.2,19.8-18.4,32.2c-4.2,12.4-6.3,25.8-6.3,40.3v3.9
	c0,7.6,0.6,14.9,1.7,22c-2-0.7-4.1-1.4-6.1-2.1V110.6h-53.3v84.8c-7.6-3.3-14.7-7.1-21.5-11.3c-9.7-6.2-17.8-13.7-24.1-22.6
	c-6.4-8.9-9.6-19.8-9.8-32.8C155.4,116.9,157.8,106.4,162.6,97.4z M78.9,327.6c-3.4-5.5-6-11.9-7.6-19.2c-1.6-7.3-2.4-15.2-2.4-23.5
	V281c0-8.1,0.8-15.8,2.4-23.1c1.6-7.3,4.1-13.7,7.6-19.2c3.4-5.5,7.9-9.9,13.3-13.1c5.4-3.2,11.9-4.8,19.6-4.8
	c7.8,0,14.3,1.6,19.7,4.8c5.4,3.2,9.8,7.6,13.2,13.1c3.4,5.5,5.9,11.9,7.5,19.2c1.6,7.3,2.4,15,2.4,23.1v3.9
	c0,8.4-0.8,16.2-2.4,23.5c-1.6,7.3-4.1,13.7-7.5,19.2c-1.1,1.8-2.4,3.5-3.7,5.1c0-0.1,0-0.2,0-0.3H82.8c0,0.1,0,0.2,0,0.4
	C81.4,331.2,80.1,329.4,78.9,327.6z M326.4,380.2c-5.3,8.9-12.2,16.3-20.6,22.1c-8.4,5.8-18,10.2-28.8,12.9
	c-10.8,2.8-21.7,4.2-32.8,4.2c-13.9,0-26.8-1.9-38.6-5.7c-11.8-3.8-22.2-9.4-31.2-16.9c-6.9-5.7-12.9-12.5-17.9-20.1
	c9.7-4.9,18-11.3,24.9-19.2c8-9.1,14.1-19.8,18.3-32.2c4.2-12.4,6.3-25.9,6.3-40.5V281c0-10.8-1.2-21-3.5-30.6
	c2.8,1.1,5.5,2.2,8.3,3.3v106.7h53.3v-88.2c1.4,0.5,2.8,1,4.3,1.5c11.8,4.3,22.6,9.7,32.5,16.2c9.8,6.5,17.9,14.4,24.1,23.8
	c6.3,9.4,9.4,21,9.4,34.8C334.4,360.7,331.7,371.3,326.4,380.2z M405.5,194c0,8.4-0.8,16.2-2.4,23.5c-1.6,7.3-4.1,13.7-7.5,19.2
	c-3.4,5.5-7.8,9.8-13.2,13c-5.4,3.2-11.9,4.8-19.4,4.8c-7.8,0-14.4-1.6-19.8-4.8c-5.5-3.2-9.9-7.5-13.4-13c-3.4-5.5-6-11.9-7.6-19.2
	c-1.6-7.3-2.4-15.2-2.4-23.5v-3.9c0-8.1,0.8-15.8,2.4-23.1c1.6-7.3,4.1-13.7,7.6-19.2c1.3-2.1,2.7-4,4.2-5.7c0,0.1,0,0.3,0.1,0.4
	h57.6c1.4,1.6,2.7,3.4,3.9,5.3c3.4,5.5,5.9,11.9,7.5,19.2c1.6,7.3,2.4,15,2.4,23.1V194z"/>
</svg>
